<svg width="343" height="343" viewBox="0 0 343 343" fill="none" xmlns="http://www.w3.org/2000/svg">
<path d="M302.384 172.127C300.643 242.907 242.711 299.745 171.521 299.745C99.2288 299.745 40.6158 241.142 40.6158 168.841C40.6158 96.5488 99.2288 37.9438 171.521 37.9438C178.406 37.9438 185.159 38.4777 191.756 39.5044C144.153 47.2688 107.822 88.5786 107.822 138.383C107.822 193.718 152.681 238.577 208.016 238.577C251.52 238.577 288.541 210.857 302.384 172.127Z" fill="#F5EFD2"/>
<path opacity="0.5" d="M189.742 269.689C185.564 264.245 181.808 258.485 178.355 252.557C176.535 249.431 174.798 246.255 173.127 243.046C171.675 240.261 170.359 237.419 168.967 234.605C168.135 232.921 167.286 231.244 166.438 229.565C131.856 213.77 107.822 178.885 107.822 138.383C107.822 88.5786 144.153 47.2677 191.756 39.5045C191.264 39.4301 190.771 39.357 190.278 39.2906C119.628 41.1806 62.9382 99.0367 62.9382 170.138C62.9382 236.055 111.659 290.584 175.045 299.696C188.396 299.345 201.248 296.995 213.315 292.932C204.404 286.354 196.501 278.499 189.742 269.689Z" fill="#D8C899"/>
<path d="M182.937 118.206L182.942 118.212L182.937 118.206Z" fill="url(#paint0_linear_4_7)"/>
<path d="M285.721 234.89C283.163 240.175 280.231 245.25 276.955 250.069C264.536 268.385 247.253 283.131 226.954 292.448H226.949C211.653 288.144 216.827 284.647 211.414 282.348C205.867 280 206.129 277.763 202.521 273.693C198.911 269.623 190.039 261.396 188.552 258.27L188.545 258.264C187.719 256.526 190.062 254.433 194.519 252.102H194.523C198.094 250.236 203.025 248.221 208.759 246.133C213.919 244.255 217.959 244.69 220.951 245.889C225.226 247.603 230.07 247.5 234.037 245.158C236.837 243.505 240.348 242.563 244.159 244.183C253.32 248.08 252.764 240.732 271.919 234.363C274.176 233.613 276.101 233.941 277.779 234.35C279.947 234.88 282.235 234.238 283.845 232.69C285.489 232.508 286.882 232.237 285.721 234.89Z" fill="#A59063"/>
<path d="M107.49 253.914C105.587 237.954 91.2471 241.136 87.1563 245.222L86.9231 245.455C79.5829 252.767 83.3193 243.737 84.2076 231.133C84.2625 230.385 84.306 229.628 84.3368 228.861C84.5518 223.36 81.1275 222.121 76.9395 222.614C68.01 223.665 61.0071 232.273 63.1109 241.014C69.5661 267.834 107.99 286.701 124.512 293.607C128.802 295.406 110.915 282.619 107.49 253.914Z" fill="#D8C899"/>
<path d="M268.58 252.861C230.472 312.146 141.237 320.137 88.5043 275.34C96.1429 272.807 107.8 267.949 112.929 265.23C126.934 258.467 125.544 253.717 136.404 258.942C151.109 266.016 152.184 268.033 164.29 263.333C195.214 241.802 192.693 265.651 221.962 257.464C241.78 250.444 250.333 246.666 268.58 252.861Z" fill="#998258"/>
<path d="M281.701 242.522C281.592 242.729 281.482 242.929 281.372 243.13C281.365 243.136 281.361 243.14 281.361 243.152C279.454 246.63 277.383 249.998 275.145 253.251C270.938 259.382 266.178 265.098 260.925 270.321C260.914 270.342 260.897 270.358 260.881 270.37C250.105 280.629 237.613 289.099 223.883 295.31H223.876C222.447 295.956 221.006 296.58 219.55 297.175C205.066 302.746 189.225 305.559 172.664 304.984C172.463 304.983 172.26 304.972 172.059 304.965C170.166 304.889 168.285 304.77 166.409 304.597C164.597 304.433 162.792 304.223 161.003 303.973C159.658 303.787 158.328 303.572 157 303.338C159.319 302.175 161.274 300.994 163.311 299.584C171.171 294.142 166.962 287.811 187.658 288.642C208.37 289.468 216.622 284.392 222.144 277.533C227.667 270.684 234.932 278.647 247.487 267.745C260.04 256.848 253.261 259.694 267.681 252.046C274.426 248.468 278.874 245.097 281.701 242.522Z" fill="#D8C899"/>
<path d="M201.069 163.261C201.069 163.261 208.848 177.169 207.191 177.416C205.53 177.668 174.516 190.436 174.516 190.436L167.518 169.222L201.069 163.261Z" fill="#E8DFBA"/>
<path d="M226.76 159.205C226.389 158.515 222.28 160.399 220.24 161.427C223.055 159.671 228.065 156.475 227.928 155.5C227.75 154.232 222.471 156.751 218.857 158.639C221.752 156.989 225.385 154.675 224.737 153.781C223.743 152.41 214.513 157.059 211.537 158.576L211.07 158.815C209.58 159.575 208.147 158.927 208.887 157.339C209.632 155.747 208.531 152.444 207.223 152.419C205.919 152.398 206.253 158.182 204.578 159.472C203.893 160.001 203.224 160.637 202.67 161.285C201.915 162.17 201.384 163.076 201.306 163.75C201.303 163.796 201.301 163.842 201.296 163.883C201.288 163.906 201.279 163.937 201.263 163.957C200.1 166.679 204.501 172.369 204.501 172.369C204.501 172.369 205.446 172.611 206.832 172.68C207.366 172.708 207.964 172.712 208.602 172.668C209.345 172.617 210.138 172.5 210.938 172.284C211.975 172.005 213.871 171.173 215.944 170.136C220.384 167.922 225.64 164.729 225.002 163.818C224.475 163.074 222.405 163.714 220.663 164.434C223.493 163.03 227.558 160.694 226.76 159.205Z" fill="#F2A68F"/>
<path d="M224.093 176.63C222.02 177.667 220.125 178.499 219.087 178.778C218.286 178.995 217.493 179.11 216.751 179.161C216.113 179.205 215.515 179.201 214.981 179.173C213.594 179.104 212.65 178.862 212.65 178.862C212.65 178.862 208.249 173.172 209.413 170.45C209.428 170.43 209.438 170.399 209.446 170.376C209.451 170.335 209.453 170.289 209.455 170.243C209.534 169.569 210.066 168.663 210.82 167.778C211.375 167.13 212.044 166.494 212.729 165.966C214.404 164.677 214.071 158.892 215.375 158.913C216.683 158.938 217.783 162.242 217.038 163.834C216.297 165.423 217.73 166.07 219.219 165.311L219.687 165.072C222.663 163.555 231.893 158.907 232.887 160.279C233.535 161.173 229.901 163.486 227.005 165.136C230.619 163.25 235.898 160.731 236.077 161.999C236.214 162.973 231.204 166.169 228.388 167.924C230.427 166.897 234.537 165.014 234.908 165.702C235.706 167.192 231.642 169.527 228.813 170.931C230.554 170.209 232.625 169.57 233.152 170.314C233.791 171.226 228.535 174.418 224.093 176.63Z" fill="#FFB598"/>
<path d="M222.069 167.897C222.073 167.895 222.079 167.897 222.083 167.895L226.512 165.246L221.944 167.647L221.937 167.65C221.928 167.656 221.272 166.783 220.884 166.396C221.353 167.026 221.752 167.698 222.125 168.383C222.261 168.638 222.393 168.895 222.525 169.154C222.524 169.154 222.151 168.022 222.069 167.897ZM223.551 170.796C223.555 170.795 223.559 170.796 223.562 170.795L227.99 168.145L223.455 170.529C223.122 169.83 222.686 169.48 222.686 169.48C222.847 169.811 223 170.147 223.139 170.486C223.314 170.896 223.445 171.325 223.557 171.761C223.62 171.741 223.65 171.087 223.551 170.796ZM224.132 173.366L228.714 170.992L224.042 173.093C224.025 172.954 223.724 172.087 223.646 172.111H223.645C223.692 172.309 223.735 172.508 223.777 172.708C223.933 173.469 224.049 174.239 224.151 175.013C224.164 174.468 224.113 173.376 224.132 173.366Z" fill="#F2A68F"/>
<path opacity="0.2" d="M232.603 160.578C232.361 160.224 231.041 160.534 230.953 160.659C230.953 160.659 231.396 161.666 231.55 161.803C231.703 161.941 232.846 160.931 232.603 160.578ZM235.755 162.023C235.513 161.67 234.194 161.979 234.106 162.104C234.106 162.104 234.548 163.111 234.702 163.249C234.856 163.386 235.999 162.376 235.755 162.023ZM234.684 166.121C234.442 165.767 233.122 166.077 233.034 166.202C233.034 166.202 233.477 167.209 233.631 167.346C233.784 167.483 234.926 166.474 234.684 166.121ZM232.577 170.683C232.334 170.329 231.015 170.639 230.927 170.764C230.927 170.764 231.37 171.771 231.524 171.908C231.677 172.044 232.819 171.036 232.577 170.683ZM214.5 161.011L215.042 161.219C215.042 161.219 215.55 159.556 215.181 159.259C214.812 158.962 214.5 161.011 214.5 161.011Z" fill="white"/>
<path d="M237.489 259.973C234.726 275.749 185.254 267.275 166.958 268.656C163.332 268.583 154.217 269.696 151.561 269.396C151.645 267.806 151.567 267.312 151.751 266.001C146.086 264.997 135.899 265.105 128.963 259.585L128.952 259.584C118.8 253.5 124.581 230.126 126.553 221.553C134.425 226.387 143.874 226.014 152.756 225.509C166.673 225.096 177.993 227.406 178.099 227.321C198.073 238.865 241.836 235.146 237.489 259.973Z" fill="#7F634F"/>
<path d="M215.733 246.635C223.612 249.621 224.524 256.587 226.681 255.84C228.837 255.094 226.1 249.205 220.793 246.635C215.485 244.065 215.733 246.635 215.733 246.635ZM186.847 259.278C186.847 259.278 165.893 247.612 146.681 251.692C142.937 252.487 139.777 252.384 137.113 251.706C137.598 248.714 136.87 245.801 134.425 244.829C128.467 242.459 132.376 229.419 132.376 229.419C132.376 229.419 142.184 233.641 152.346 230.648C161.419 227.967 181.085 230.821 179.633 228.452C179.532 228.271 179.301 228.063 178.929 227.815C178.704 227.669 178.431 227.504 178.1 227.322C177.994 227.407 166.674 225.097 152.757 225.51C146.91 225.685 140.898 226.265 135.135 224.946C132.112 224.253 129.292 223.062 126.601 221.57C126.59 221.569 126.566 221.567 126.554 221.553C125.889 223.9 124.48 230.15 123.703 236.808C123.002 242.823 122.82 249.156 124.166 253.252C124.443 254.099 124.78 254.858 125.196 255.492C125.452 255.88 125.724 256.247 126.002 256.605C126.04 256.653 126.078 256.7 126.115 256.748C126.358 257.052 126.607 257.346 126.863 257.628C126.91 257.68 126.957 257.734 127.004 257.785C127.6 258.425 128.244 259.019 128.929 259.563C128.937 259.57 128.944 259.577 128.952 259.582H128.954C135.898 265.096 146.077 264.994 151.748 265.996C149.479 264.028 147.16 261.005 147.213 256.883C147.321 248.877 186.847 259.278 186.847 259.278Z" fill="#6B503D"/>
<path d="M181.36 227.566C168.722 229.009 167.679 227.058 155.09 227.071C145.383 227.21 132.105 227.894 123.597 222.126C130.667 204.317 132.677 149.385 158.96 141.43C187.957 132.654 175.059 220.518 181.36 227.566Z" fill="#F5EFD2"/>
<path d="M132.388 213.987C142.423 220.788 157.267 219.71 157.267 219.71C157.267 219.71 148.641 223.939 140.515 221.203C132.388 218.466 132.388 213.987 132.388 213.987ZM179.562 218.729C168.922 213.857 152.921 205.106 151.394 195.992C149.088 182.226 153.368 165.971 154.398 170.995C155.079 174.326 169.417 181.796 178.989 186.446C179.336 198.724 179.078 210.787 179.562 218.729Z" fill="#E8DFBA"/>
<path d="M218.586 202.984C215.545 203.775 210.291 200.222 206.989 201.485C205.705 202.006 205.007 203.385 203.892 204.203C193.57 211.773 160.166 203.816 154.813 194.815C148.787 184.683 152.521 163.849 152.721 158.6C153.053 149.898 166.204 145.993 170.853 152.076C175.355 157.968 178.088 183.455 180.457 181.728C180.466 181.749 205.074 166.642 207.572 166.43C209.058 166.3 210.539 166.591 211.796 167.454C218.063 172.878 215.03 182.617 216.779 189.857C217.408 194.136 220.237 198.845 218.586 202.984Z" fill="#F5EFD2"/>
<path d="M174.848 191.099C177.999 188.114 180.457 182.474 180.457 182.474C180.457 182.474 179.893 186.537 178.829 188.03C177.764 189.523 174.848 191.099 174.848 191.099ZM176.627 195.868C179.149 192.335 180.484 186.33 180.484 186.33C180.484 186.33 180.707 190.427 179.948 192.095C179.188 193.764 176.627 195.868 176.627 195.868Z" fill="#E8DFBA"/>
<path d="M154.398 258.069L146.916 257.872C146.208 256.542 145.161 254.863 144.298 254.677C141.896 254.163 133.573 260.206 133.573 260.206C133.573 260.206 121.64 263.649 116.335 264.608C111.03 265.568 110.46 269.125 113.818 268.835C117.123 268.551 142.079 271.733 145.025 267.822L154.191 268.41L154.398 258.069Z" fill="#FFB598"/>
<path d="M148.429 256.057L147.37 257.62C147.37 257.62 150.798 267.705 151.041 269.094C151.285 270.484 152.305 270.68 154.925 270.174C157.547 269.669 173.657 268.927 176.172 269.372C178.686 269.816 170.44 259.107 162.231 257.297C154.022 255.488 148.429 256.057 148.429 256.057Z" fill="#7F634F"/>
<path d="M182.486 113.934C182.486 113.934 183.124 122.847 182.732 125.635C182.34 128.423 183.751 129.362 183.751 129.362C183.751 129.362 182.978 131.121 182.004 131.548C181.03 131.973 181.736 135.987 178.129 138.706C174.521 141.425 172.016 137.848 170.195 140.239C168.374 142.634 168.603 145.243 168.603 145.243C168.603 145.243 157.322 149.997 154.421 142.552C154.421 142.552 155.553 137.781 155.214 136.106C154.876 134.427 153.681 118.29 156.046 115.995C158.41 113.696 182.486 113.934 182.486 113.934Z" fill="#FFB598"/>
<path opacity="0.15" d="M172.308 137.191C171.754 135.939 171.458 134.547 170.696 133.4C170.113 133.93 169.772 134.69 169.307 135.321C168.726 136.109 168.061 136.859 167.321 137.501C166.634 138.095 165.922 138.47 165.023 138.622C164.451 138.718 163.875 138.754 163.317 138.884C164.774 140.129 166.414 141.176 167.567 142.738C167.996 143.319 168.364 143.935 168.698 144.571C169.002 142.883 169.471 141.195 170.197 140.239C171.174 138.956 172.352 139.391 173.789 139.65C173.21 138.885 172.701 138.076 172.308 137.191Z" fill="#33133F"/>
<path d="M174.132 125.641C174.132 125.641 173.475 124.155 173.232 124.524C172.99 124.893 173.636 125.456 173.636 125.456C173.636 125.456 172.328 125.331 172.798 126.015C173.268 126.7 174.132 125.641 174.132 125.641ZM180.258 120.097C180.03 120.999 183.578 121.645 183.312 120.881C183.047 120.119 180.572 118.848 180.258 120.097ZM179.219 123.806C179.086 124.532 180.247 123.654 181.162 123.616C182.117 123.402 182.828 124.029 182.704 123.695C182.989 122.727 179.869 121.287 179.219 123.806Z" fill="#7F634F"/>
<path d="M185.46 112.81C182.606 109.383 181.152 106.699 177.65 109.56C175.43 111.373 174.686 113.623 175.721 115.097C168.831 115.273 156.62 115.653 155.329 116.159C153.521 116.865 152.725 118.236 151.82 122.925C150.915 127.613 150.698 125.84 152.386 131.615C154.074 137.384 153.912 136.054 156.347 138.428C158.784 140.8 161.02 138.566 162.426 136.886C163.835 135.204 166.697 135.884 170.266 135.231C170.317 135.222 170.358 135.207 170.406 135.197C170.463 136.978 171.171 139.259 173.892 140.653C178.671 143.102 182.069 132.357 181.593 132.135C181.119 131.913 177.866 132.197 177.469 131.934C177.212 131.763 176.579 128.352 176.192 126.186C176.54 125.511 176.876 124.068 177.011 122.97C177.262 120.93 180.467 118.814 180.707 117.753C180.79 117.386 180.775 116.944 180.723 116.521C183.116 116.244 187.595 115.375 185.46 112.81ZM171.771 128.323C169.967 125.266 171.493 123.49 172.551 121.985C173.609 120.476 174.97 122.719 175.392 125.499C175.406 125.586 175.42 125.65 175.434 125.726C175.956 131.441 172.119 128.912 171.771 128.323Z" fill="#7F634F"/>
<path d="M153.509 135.131C153.741 133.802 153.862 132.456 154.142 131.136C154.42 129.827 154.941 128.553 156.087 127.776C157.475 126.833 159.251 126.884 160.852 126.727C161.632 126.65 163.261 126.524 163.747 125.766C164.072 125.26 163.835 124.405 164.048 123.818C164.495 122.58 165.717 121.915 166.85 121.401C169.696 120.113 172.761 119.41 175.437 117.726C177.044 116.714 178.389 115.242 178.984 113.41C179.493 111.844 179.402 110.176 179.323 108.547C178.815 108.733 178.266 109.056 177.651 109.559C175.431 111.372 174.688 113.622 175.722 115.096C168.833 115.272 156.621 115.652 155.33 116.158C153.522 116.864 152.726 118.234 151.821 122.924C150.917 127.612 150.699 125.839 152.387 131.614C152.883 133.313 153.218 134.386 153.509 135.131Z" fill="#6B503D"/>
<path d="M178.576 111.757C176.886 118.417 155.657 120.448 152.947 118.086C150.24 115.727 150.427 103.485 165.541 101.267C174.327 99.9776 179.698 107.341 178.576 111.757Z" fill="#E8DFBA"/>
<path opacity="0.2" d="M173.039 110.134C173.039 110.134 172.631 109.725 172.17 109.296C172.551 108.891 172.919 108.492 173.233 108.136C173.673 108.656 174.087 109.093 174.087 109.093C174.087 109.093 173.766 108.549 173.389 107.957C173.956 107.301 174.287 106.839 174.059 106.873C173.887 106.899 173.559 107.181 173.157 107.598C172.706 106.914 172.251 106.301 172.203 106.531C172.159 106.742 172.534 107.278 172.96 107.806C172.627 108.164 172.258 108.592 171.888 109.037C171.365 108.569 170.863 108.171 170.87 108.385C170.876 108.573 171.266 108.915 171.714 109.247C171.42 109.603 171.131 109.964 170.864 110.3C170.39 109.731 169.907 109.216 169.883 109.439C169.862 109.642 170.262 110.086 170.701 110.507C170.07 111.309 169.607 111.925 169.607 111.925C169.607 111.925 170.151 111.385 170.861 110.658C171.33 111.094 171.792 111.47 171.792 111.47C171.792 111.47 171.43 110.99 171.023 110.492C171.338 110.168 171.677 109.816 172.013 109.462C172.534 109.829 173.039 110.134 173.039 110.134Z" fill="#0F1019"/>
<path d="M164.19 106.639C164.274 108.968 155.935 113.313 156.057 109.147C156.179 104.982 164.097 104.083 164.19 106.639Z" fill="#F5EFD2"/>
<path d="M152.555 109.639C152.517 110.69 152.749 111.739 153.398 112.734C154.779 114.854 157.541 115.36 159.736 114.537C161.042 114.048 162.018 112.994 163.218 112.311C164.755 111.435 166.202 112.26 167.748 112.7C169.117 113.088 170.583 113.379 171.985 113.016C173.376 112.656 174.592 111.6 175.657 110.64C176.659 109.738 177.538 108.659 177.905 107.305C178.653 108.846 178.91 110.435 178.574 111.759C176.884 118.418 155.655 120.449 152.945 118.087C151.595 116.908 150.966 113.267 152.555 109.639Z" fill="#F5EFD2"/>
<path d="M172.065 131.829C171.304 132.279 170.593 132.818 169.788 133.196C169.778 133.201 169.768 133.204 169.758 133.209C168.58 134.07 167.346 134.855 166.107 135.631C167.325 135.549 168.723 135.512 170.265 135.23C170.316 135.221 170.357 135.206 170.405 135.196C170.462 136.977 171.17 139.258 173.891 140.652C175.454 141.452 176.863 140.831 178.044 139.64C174.907 138.37 173.157 135.163 172.065 131.829ZM159.385 123.136C159.608 124.418 159.676 132.543 160.02 130.594C160.357 128.684 160.034 127.403 160.034 127.403L160.457 128.886C160.457 128.886 161.433 123.834 160.957 123.052C160.481 122.27 160.299 124.538 160.299 124.538L159.385 123.136ZM154.592 125.104C154.955 126.69 158.809 136.101 157.469 134.018C156.156 131.977 155.91 130.342 155.91 130.342L156.138 132.259C156.138 132.259 152.568 126.901 152.738 125.768C152.909 124.635 154.216 127.163 154.216 127.163L154.592 125.104ZM163.827 127.698C164.593 125.642 166.36 124.666 166.106 124.039C166.106 124.039 167.01 126.303 165.588 127.522L167.262 128.217C167.262 128.217 167.066 132.34 164.8 133.831L165.366 129.962C165.366 129.962 163.609 128.284 163.827 127.698Z" fill="#6B503D"/>
<path d="M170.021 142.35C170.021 142.35 167.031 143.789 161.227 142.338C155.425 140.886 154.588 139.855 154.588 139.855C154.588 139.855 153.256 139.66 151.485 144.248C149.714 148.833 161.922 150.639 167.066 147.567C172.21 144.494 172.264 145.448 172.264 145.448L170.021 142.35Z" fill="#E8DFBA"/>
<path d="M240.292 102.436C239.772 102.436 239.336 103.848 239.214 105.755C237.307 105.876 235.894 106.313 235.894 106.832C235.894 107.352 237.306 107.788 239.214 107.909C239.335 109.817 239.772 111.229 240.292 111.229C240.812 111.229 241.248 109.817 241.369 107.909C243.277 107.788 244.689 107.351 244.689 106.832C244.689 106.312 243.277 105.876 241.37 105.755C241.248 103.848 240.811 102.435 240.292 102.436Z" fill="#D8C899"/>
<path opacity="0.5" d="M265.169 175.38C264.877 175.38 264.634 176.172 264.565 177.24C263.497 177.307 262.707 177.552 262.707 177.843C262.707 178.134 263.497 178.378 264.565 178.447C264.634 179.515 264.877 180.305 265.169 180.305C265.46 180.305 265.704 179.515 265.772 178.447C266.84 178.379 267.63 178.135 267.63 177.843C267.63 177.552 266.84 177.308 265.772 177.24C265.704 176.172 265.46 175.38 265.169 175.38Z" fill="#F5EFD2"/>
<path d="M62.9382 269.663C62.4512 269.663 62.0407 270.988 61.9275 272.778C60.1382 272.892 58.8131 273.301 58.8131 273.788C58.8131 274.277 60.1382 274.686 61.9275 274.8C62.0419 276.589 62.4512 277.915 62.9382 277.915C63.4264 277.915 63.8357 276.589 63.9489 274.8C65.7382 274.686 67.0634 274.277 67.0634 273.788C67.0634 273.3 65.7382 272.891 63.9489 272.778C63.8357 270.988 63.4264 269.663 62.9382 269.663Z" fill="#F5EFD2"/>
<path opacity="0.5" d="M290.846 127.019L289.411 126.42C289.334 126.388 289.274 126.327 289.242 126.25L288.643 124.815C288.534 124.557 288.168 124.557 288.061 124.815L287.461 126.25C287.429 126.327 287.369 126.388 287.292 126.42L285.856 127.019C285.598 127.126 285.598 127.493 285.856 127.601L287.292 128.201C287.369 128.233 287.429 128.293 287.461 128.37L288.061 129.805C288.168 130.063 288.535 130.063 288.643 129.805L289.242 128.37C289.274 128.293 289.334 128.233 289.411 128.201L290.846 127.601C291.104 127.492 291.104 127.126 290.846 127.019Z" fill="#F5EFD2"/>
<path d="M246.486 65.832L245.136 65.2683C245.101 65.2536 245.068 65.232 245.041 65.2047C245.014 65.1774 244.992 65.145 244.977 65.1094L244.414 63.7603C244.312 63.5179 243.968 63.5179 243.866 63.7603L243.302 65.1094C243.288 65.145 243.266 65.1774 243.239 65.2047C243.212 65.232 243.179 65.2536 243.144 65.2683L241.793 65.832C241.551 65.9337 241.55 66.2779 241.793 66.3796L243.144 66.9433C243.216 66.973 243.273 67.0302 243.302 67.1022L243.866 68.4514C243.968 68.6949 244.312 68.6949 244.414 68.4514L244.977 67.1022C245.007 67.0302 245.064 66.973 245.136 66.9433L246.486 66.3796C246.729 66.2779 246.729 65.9337 246.486 65.832Z" fill="#F5EFD2"/>
<path d="M225.081 47.2928L223.614 46.68C223.537 46.6468 223.474 46.5851 223.44 46.5062L222.828 45.0382C222.717 44.7741 222.343 44.7741 222.232 45.0382L221.619 46.5062C221.586 46.5851 221.524 46.6468 221.445 46.68L219.977 47.2928C219.713 47.4026 219.713 47.7776 219.977 47.8885L221.445 48.5013C221.524 48.5345 221.586 48.5962 221.619 48.6751L222.232 50.1432C222.343 50.4073 222.717 50.4073 222.828 50.1432L223.44 48.6751C223.472 48.5974 223.535 48.5345 223.614 48.5013L225.082 47.8885C225.345 47.7787 225.345 47.4037 225.081 47.2928Z" fill="#D8C899"/>
<path d="M185.038 80.5261L182.883 79.6252C182.768 79.5773 182.676 79.4856 182.628 79.3702L181.727 77.2139C181.565 76.8251 181.015 76.8251 180.852 77.2139L179.952 79.3702C179.904 79.4856 179.812 79.5773 179.697 79.6252L177.54 80.5261C177.151 80.6885 177.151 81.2384 177.54 81.4008L179.698 82.3017C179.813 82.3496 179.905 82.4413 179.953 82.5567L180.854 84.713C181.016 85.1017 181.566 85.1017 181.728 84.713L182.629 82.5567C182.677 82.4413 182.769 82.3496 182.884 82.3017L185.039 81.4008C185.426 81.2373 185.426 80.6873 185.038 80.5261Z" fill="#F5EFD2"/>
<defs>
<linearGradient id="paint0_linear_4_7" x1="182.939" y1="118.209" x2="182.939" y2="118.205" gradientUnits="userSpaceOnUse">
<stop offset="0.457" stop-color="#EAA745"/>
<stop offset="1" stop-color="#ED6840"/>
</linearGradient>
</defs>
</svg>
